<?xml version="1.0" encoding="utf-8"?>
<!-- Generator: Adobe Adobe Illustrator 24.2.0, SVG Export Plug-In . SVG Version: 6.00 Build 0)  -->
<svg version="1.1" xmlns="http://www.w3.org/2000/svg" xmlns:xlink="http://www.w3.org/1999/xlink" x="0px" y="0px" width="1080px"
	 height="1080px" viewBox="0 0 1080 1080" style="enable-background:new 0 0 1080 1080;" xml:space="preserve">
<style type="text/css">
	.st0{display:none;}
	.st1{fill:#E36200;}
	.st2{fill:#29518D;}
	.st3{fill:#FFFFFF;}
	.st4{fill:none;}
</style>
<g id="Layer_1" class="st0">
</g>
<g id="Layer_2">
	<g>
		<path class="st3" d="M284.48,478.48l151.69-8.22l23.16-12.95l-36.78,0.35c0,0,74.26-23.03,139.46-20.51
			c61.62,2.37,144.92,37.61,144.92,37.61s-101.6-28.05-139.72-26.26c0,0-68.32-2.74-101.15,33.48L284.48,478.48z"/>
	</g>
	<g>
		<polygon class="st1" points="191.43,499.38 357.64,508.6 356.56,517.82 356.56,517.82 356.56,517.82 282.83,520.35 360.75,525.81 
			362.79,532.97 417.38,534.62 407.6,496.58 		"/>
	</g>
	<g>
		<polygon class="st1" points="323.64,539.42 326.92,550.09 367.14,551 369.82,558 422.55,558.3 418.74,540.63 		"/>
	</g>
	<g>
		<polygon class="st1" points="290.68,567.37 373.05,579.51 375.95,589.45 351.54,589.88 357.03,602.83 378.75,602.48 
			396.64,671.77 443.03,672.55 582.72,495.02 530.11,495.02 438.1,611.39 424.11,567.07 		"/>
	</g>
	<g>
		<g>
			<polygon class="st3" points="571.27,544.49 590.03,494.64 636.93,495.18 676.6,593.54 767.46,493.84 828.57,495.45 
				779.79,668.32 731.28,668.32 758.08,570.76 685.18,647.95 647.92,647.41 602.9,545.3 			"/>
		</g>
		<g>
			<polygon class="st3" points="566.45,556.55 594.59,557.36 610.94,583.62 584.94,669.66 533.21,671 			"/>
		</g>
	</g>
	<rect x="1035.76" y="852.04" class="st4" width="0" height="0"/>
</g>
</svg>
