<?xml version="1.0" encoding="utf-8"?>
<!-- Generator: Adobe Adobe Illustrator 24.2.0, SVG Export Plug-In . SVG Version: 6.00 Build 0)  -->
<svg version="1.1" xmlns="http://www.w3.org/2000/svg" xmlns:xlink="http://www.w3.org/1999/xlink" x="0px" y="0px" width="1080px"
	 height="1080px" viewBox="0 0 1080 1080" style="enable-background:new 0 0 1080 1080;" xml:space="preserve">
<style type="text/css">
	.st0{display:none;}
	.st1{fill:#E36200;}
	.st2{fill:#29518D;}
	.st3{fill:#FFFFFF;}
</style>
<g id="Layer_1" class="st0">
</g>
<g id="Layer_2">
	<g>
		<g>
			<path class="st3" d="M314.48,463.73l151.69-8.22l23.16-12.95l-36.78,0.35c0,0,74.26-23.03,139.46-20.51
				C653.63,424.77,736.93,460,736.93,460s-101.6-28.05-139.72-26.26c0,0-68.32-2.74-101.15,33.48L314.48,463.73z"/>
		</g>
		<g>
			<polygon class="st3" points="221.43,484.62 387.64,493.84 386.56,503.06 386.56,503.06 386.56,503.06 312.83,505.59 
				390.75,511.06 392.79,518.22 447.38,519.87 437.6,481.83 			"/>
		</g>
		<g>
			<polygon class="st3" points="353.64,524.67 356.92,535.34 397.14,536.25 399.82,543.25 452.55,543.55 448.74,525.88 			"/>
		</g>
		<g>
			<polygon class="st3" points="320.68,552.62 403.05,564.76 405.95,574.7 381.54,575.13 387.03,588.08 408.75,587.73 
				426.64,657.02 473.03,657.8 612.72,480.27 560.11,480.27 468.1,596.64 454.11,552.32 			"/>
		</g>
		<g>
			<g>
				<polygon class="st3" points="601.27,529.74 620.03,479.89 666.93,480.43 706.6,578.79 797.46,479.09 858.57,480.7 
					809.79,653.57 761.28,653.57 788.08,556.01 715.18,633.2 677.92,632.66 632.9,530.55 				"/>
			</g>
			<g>
				<polygon class="st3" points="596.45,541.8 624.59,542.61 640.94,568.87 614.94,654.91 563.21,656.25 				"/>
			</g>
		</g>
	</g>
</g>
</svg>
