<?xml version="1.0" encoding="utf-8"?>
<!-- Generator: Adobe Adobe Illustrator 24.2.0, SVG Export Plug-In . SVG Version: 6.00 Build 0)  -->
<svg version="1.1" xmlns="http://www.w3.org/2000/svg" xmlns:xlink="http://www.w3.org/1999/xlink" x="0px" y="0px" width="1080px"
	 height="1080px" viewBox="0 0 1080 1080" style="enable-background:new 0 0 1080 1080;" xml:space="preserve">
<style type="text/css">
	.st0{display:none;}
	.st1{fill:#E36200;}
	.st2{fill:#29518D;}
</style>
<g id="Layer_1" class="st0">
</g>
<g id="Layer_2">
	<g>
		<g>
			<path class="st1" d="M272.48,463.73l151.69-8.22l23.16-12.95l-36.78,0.35c0,0,74.26-23.03,139.46-20.51
				C611.63,424.77,694.93,460,694.93,460s-101.6-28.05-139.72-26.26c0,0-68.32-2.74-101.15,33.48L272.48,463.73z"/>
		</g>
		<g>
			<polygon class="st1" points="179.43,484.62 345.64,493.84 344.56,503.06 344.56,503.06 344.56,503.06 270.83,505.59 
				348.75,511.06 350.79,518.22 405.38,519.87 395.6,481.83 			"/>
		</g>
		<g>
			<polygon class="st1" points="311.64,524.67 314.92,535.34 355.14,536.25 357.82,543.25 410.55,543.55 406.74,525.88 			"/>
		</g>
		<g>
			<polygon class="st1" points="278.68,552.62 361.05,564.76 363.95,574.7 339.54,575.13 345.03,588.08 366.75,587.73 
				384.64,657.02 431.03,657.8 570.72,480.27 518.11,480.27 426.1,596.64 412.11,552.32 			"/>
		</g>
		<g>
			<g>
				<polygon class="st2" points="559.27,529.74 578.03,479.89 624.93,480.43 664.6,578.79 755.46,479.09 816.57,480.7 
					767.79,653.57 719.28,653.57 746.08,556.01 673.18,633.2 635.92,632.66 590.9,530.55 				"/>
			</g>
			<g>
				<polygon class="st2" points="554.45,541.8 582.59,542.61 598.94,568.87 572.94,654.91 521.21,656.25 				"/>
			</g>
		</g>
	</g>
</g>
</svg>
