<?xml version="1.0" encoding="utf-8"?>
<!-- Generator: Adobe Adobe Illustrator 24.2.0, SVG Export Plug-In . SVG Version: 6.00 Build 0)  -->
<svg version="1.1" xmlns="http://www.w3.org/2000/svg" xmlns:xlink="http://www.w3.org/1999/xlink" x="0px" y="0px" width="1080px"
	 height="1080px" viewBox="0 0 1080 1080" style="enable-background:new 0 0 1080 1080;" xml:space="preserve">
<style type="text/css">
	.st0{display:none;}
	.st1{fill:#E36200;}
	.st2{fill:#29518D;}
</style>
<g id="Layer_1" class="st0">
</g>
<g id="Layer_2">
	<g>
		<path class="st2" d="M277.43,518.8l-21.61,42.4h-8.41l-21.7-42.4h11.05l14.93,29.04l14.68-29.04H277.43z"/>
		<path class="st2" d="M290.13,561.2h-9.9v-42.4h9.9V561.2z"/>
		<path class="st2" d="M342.43,528.7H323.3v32.5h-9.9v-32.5h-19.14v-9.9h48.17V528.7z"/>
		<path class="st2" d="M398.03,561.2h-9.9v-13.45h-26.07v-9.9h26.07v-5.94c0-2.14-0.71-3.22-2.15-3.22h-28.05
			c-1.37,0-2.06,1.07-2.06,3.21v29.29h-9.9v-29.31c0-3.57,1.11-6.64,3.34-9.22c2.23-2.58,5.1-3.87,8.62-3.87h28.05
			c3.57,0,6.48,1.29,8.7,3.87c2.23,2.58,3.34,5.65,3.34,9.22V561.2z"/>
		<path class="st2" d="M444.64,561.2h-42.48v-42.4h9.9v32.5h32.58V561.2z"/>
		<path class="st1" d="M503.87,561.2h-9.9v-25.82l-17.65,25.16l-17.65-25.16v25.82h-9.9v-42.4h10.39l17.16,24.5l17.24-24.5h10.31
			V561.2z"/>
		<path class="st1" d="M560.62,547.78c0,3.84-1.35,7.04-4.04,9.59c-2.7,2.55-5.97,3.83-9.82,3.83h-24.91
			c-3.85,0-7.12-1.28-9.82-3.83c-2.69-2.55-4.04-5.75-4.04-9.59v-15.56c0-3.84,1.35-7.04,4.04-9.59c2.69-2.55,5.97-3.83,9.82-3.83
			h24.91c3.85,0,7.12,1.28,9.82,3.83c2.69,2.55,4.04,5.75,4.04,9.59V547.78z M550.72,547.77v-15.53c0-2.36-1.32-3.53-3.96-3.53
			h-24.91c-2.64,0-3.96,1.18-3.96,3.53v15.53c0,2.36,1.32,3.53,3.96,3.53h24.91C549.41,551.3,550.72,550.12,550.72,547.77z"/>
		<path class="st1" d="M612.92,528.7h-19.14v32.5h-9.9v-32.5h-19.14v-9.9h48.18V528.7z"/>
		<path class="st1" d="M669.1,547.78c0,3.84-1.35,7.04-4.04,9.59c-2.7,2.55-5.97,3.83-9.82,3.83h-24.91c-3.85,0-7.12-1.28-9.82-3.83
			c-2.69-2.55-4.04-5.75-4.04-9.59v-15.56c0-3.84,1.35-7.04,4.04-9.59c2.69-2.55,5.97-3.83,9.82-3.83h24.91
			c3.85,0,7.12,1.28,9.82,3.83c2.69,2.55,4.04,5.75,4.04,9.59V547.78z M659.2,547.77v-15.53c0-2.36-1.32-3.53-3.96-3.53h-24.91
			c-2.64,0-3.96,1.18-3.96,3.53v15.53c0,2.36,1.32,3.53,3.96,3.53h24.91C657.88,551.3,659.2,550.12,659.2,547.77z"/>
		<path class="st1" d="M718.1,531.92c0,3.58-1.07,6.6-3.22,9.07c-2.31,2.64-5.23,3.96-8.74,3.96h-11.3c-3.19,0-5.5,0.32-6.93,0.98
			c-2.04,0.98-3.27,2.77-3.71,5.38h31.92v9.9h-42.81l-0.08-5.02c-0.22-14.09,6.97-21.13,21.56-21.13h11.27
			c1.42,0,2.14-1.07,2.14-3.22c0-2.09-0.71-3.13-2.14-3.13h-30.78v-9.9h30.85c3.52,0,6.43,1.32,8.74,3.96
			C717.03,525.29,718.1,528.34,718.1,531.92z"/>
		<path class="st1" d="M766.85,552.7H760v8.5h-9.9v-8.5h-27.88l0.08-9.65l24.34-24.25H760v24h6.85V552.7z M750.11,542.8v-14.52
			l-15.43,14.52H750.11z"/>
		<path class="st1" d="M807.85,518.8l-29.28,42.4h-9.9l29.28-42.4H807.85z"/>
		<path class="st1" d="M854.29,518.8l-0.17,9.72l-24.33,32.69h-13.36l25.33-32.5h-32.09v-9.9H854.29z"/>
	</g>
</g>
</svg>
